<svg width="42" height="42" viewBox="0 0 42 42" fill="none" xmlns="http://www.w3.org/2000/svg">
<circle cx="21" cy="21" r="21" fill="white"/>
<g clip-path="url(#clip0_1378_3135)">
<path d="M19.1475 11.7472C22.1787 14.5867 22.8935 18.5213 20.7428 20.5354C18.592 22.5495 14.3899 21.8798 11.3572 19.0402C8.32461 16.2006 6.87468 11.7514 9.02544 9.73734C11.1762 7.72326 16.1132 8.90758 19.1475 11.7472Z" fill="#52B0A0"/>
<path d="M22.8538 11.7472C19.8225 14.5867 19.1063 18.5213 21.257 20.5354C23.4078 22.5495 27.61 21.8798 30.6426 19.0402C33.6752 16.2006 35.1251 11.7514 32.9744 9.73734C30.8236 7.72326 25.8867 8.90758 22.8538 11.7472Z" fill="#52B0A0"/>
<path d="M22.8538 30.2533C19.8225 27.4138 19.1063 23.4792 21.257 21.4651C23.4078 19.451 27.61 20.1207 30.6426 22.9603C33.6752 25.7999 35.1251 30.2491 32.9744 32.2632C30.8236 34.2772 25.8867 33.0943 22.8538 30.2533Z" fill="#52B0A0"/>
<path d="M19.1475 30.2533C22.1787 27.4138 22.8935 23.4792 20.7428 21.4651C18.592 19.451 14.3899 20.1207 11.3572 22.9603C8.32461 25.7999 6.87468 30.2491 9.02544 32.2632C11.1762 34.2772 16.1132 33.0943 19.1475 30.2533Z" fill="#52B0A0"/>
<path d="M20.9999 22.7362C21.9435 22.7362 22.7084 21.9588 22.7084 20.9999C22.7084 20.041 21.9435 19.2637 20.9999 19.2637C20.0564 19.2637 19.2915 20.041 19.2915 20.9999C19.2915 21.9588 20.0564 22.7362 20.9999 22.7362Z" fill="#FFAA97"/>
</g>
<path d="M32.9679 23C34.0548 23 34.9359 22.1046 34.9359 21C34.9359 19.8954 34.0548 19 32.9679 19C31.8811 19 31 19.8954 31 21C31 22.1046 31.8811 23 32.9679 23Z" fill="#FFAA97"/>
<path d="M8.96794 23C10.0548 23 10.9359 22.1046 10.9359 21C10.9359 19.8954 10.0548 19 8.96794 19C7.88108 19 7 19.8954 7 21C7 22.1046 7.88108 23 8.96794 23Z" fill="#FFAA97"/>
<path d="M20.9679 11C22.0548 11 22.9359 10.1046 22.9359 9C22.9359 7.89543 22.0548 7 20.9679 7C19.8811 7 19 7.89543 19 9C19 10.1046 19.8811 11 20.9679 11Z" fill="#FFAA97"/>
<path d="M20.9679 35C22.0548 35 22.9359 34.1046 22.9359 33C22.9359 31.8954 22.0548 31 20.9679 31C19.8811 31 19 31.8954 19 33C19 34.1046 19.8811 35 20.9679 35Z" fill="#FFAA97"/>
<path fill-rule="evenodd" clip-rule="evenodd" d="M21 39.9C31.4381 39.9 39.9 31.438 39.9 21C39.9 10.5619 31.4381 2.1 21 2.1C10.562 2.1 2.1 10.5619 2.1 21C2.1 31.438 10.562 39.9 21 39.9ZM21 42C32.5983 42 42 32.5983 42 21C42 9.4017 32.5983 0 21 0C9.4017 0 0 9.4017 0 21C0 32.5983 9.4017 42 21 42Z" fill="#52B0A0"/>
<defs>
<clipPath id="clip0_1378_3135">
<rect width="26" height="26" fill="white" transform="translate(8 8)"/>
</clipPath>
</defs>
</svg>
