<svg width="42" height="42" viewBox="0 0 42 42" fill="none" xmlns="http://www.w3.org/2000/svg">
<circle cx="21" cy="21" r="21" fill="white"/>
<path fill-rule="evenodd" clip-rule="evenodd" d="M21 39.9C31.4381 39.9 39.9 31.438 39.9 21C39.9 10.5619 31.4381 2.1 21 2.1C10.562 2.1 2.1 10.5619 2.1 21C2.1 31.438 10.562 39.9 21 39.9ZM21 42C32.5983 42 42 32.5983 42 21C42 9.4017 32.5983 0 21 0C9.4017 0 0 9.4017 0 21C0 32.5983 9.4017 42 21 42Z" fill="#52B0A0"/>
<path d="M12.9965 12C14.0992 12 14.993 11.1046 14.993 10C14.993 8.89543 14.0992 8 12.9965 8C11.8939 8 11 8.89543 11 10C11 11.1046 11.8939 12 12.9965 12Z" fill="#FFAA97"/>
<path d="M28.9965 12C30.0992 12 30.993 11.1046 30.993 10C30.993 8.89543 30.0992 8 28.9965 8C27.8939 8 27 8.89543 27 10C27 11.1046 27.8939 12 28.9965 12Z" fill="#FFAA97"/>
<path d="M7.99651 26C9.09916 26 9.99303 25.1046 9.99303 24C9.99303 22.8954 9.09916 22 7.99651 22C6.89387 22 6 22.8954 6 24C6 25.1046 6.89387 26 7.99651 26Z" fill="#FFAA97"/>
<path d="M33.9965 26C35.0992 26 35.993 25.1046 35.993 24C35.993 22.8954 35.0992 22 33.9965 22C32.8939 22 32 22.8954 32 24C32 25.1046 32.8939 26 33.9965 26Z" fill="#FFAA97"/>
<path d="M20.9965 36C22.0992 36 22.993 35.1046 22.993 34C22.993 32.8954 22.0992 32 20.9965 32C19.8939 32 19 32.8954 19 34C19 35.1046 19.8939 36 20.9965 36Z" fill="#FFAA97"/>
<path d="M18.5749 14.7465C21.9304 16.9007 23.2608 20.4722 21.546 22.7235C19.8312 24.9748 15.7209 25.0533 12.3653 22.8988C9.00978 20.7442 6.89346 16.8135 8.60909 14.5622C10.3247 12.3109 15.219 12.5919 18.5749 14.7465Z" fill="#52B0A0"/>
<path d="M23.426 14.7465C20.0704 16.9007 18.74 20.4722 20.4548 22.7235C22.1696 24.9748 26.2799 25.0533 29.6355 22.8988C32.9911 20.7442 35.1074 16.8135 33.3918 14.5622C31.6761 12.3109 26.7818 12.5919 23.426 14.7465Z" fill="#52B0A0"/>
<path d="M20.9663 28.6125C18.5486 25.4383 18.518 21.6263 20.898 20.0985C23.278 18.5706 27.1672 19.905 29.5849 23.0792C32.0026 26.2533 32.6483 30.6719 30.2683 32.1998C27.8883 33.7276 23.3843 31.7867 20.9663 28.6125Z" fill="#52B0A0"/>
<path d="M21.0347 28.6125C23.4524 25.4383 23.4831 21.6263 21.1031 20.0985C18.7231 18.5706 14.8339 19.905 12.4162 23.0792C9.99844 26.2533 9.35277 30.6719 11.7328 32.1998C14.1128 33.7276 18.6167 31.7867 21.0347 28.6125Z" fill="#52B0A0"/>
<path d="M15.9325 15.8258C16.1663 19.8118 18.625 22.7213 21.4239 22.3245C24.2228 21.9277 26.3019 18.375 26.0681 14.389C25.8342 10.4031 23.4464 6.63106 20.6478 7.02892C17.8491 7.42677 15.6984 11.8399 15.9325 15.8258Z" fill="#52B0A0"/>
<path d="M21.0005 22.2728C21.9125 22.2728 22.6518 21.5322 22.6518 20.6186C22.6518 19.705 21.9125 18.9644 21.0005 18.9644C20.0884 18.9644 19.3491 19.705 19.3491 20.6186C19.3491 21.5322 20.0884 22.2728 21.0005 22.2728Z" fill="#FFAA97"/>
</svg>
