<svg width="42" height="42" viewBox="0 0 42 42" fill="none" xmlns="http://www.w3.org/2000/svg">
<circle cx="21" cy="21" r="21" fill="white"/>
<path fill-rule="evenodd" clip-rule="evenodd" d="M21 39.9C31.4381 39.9 39.9 31.438 39.9 21C39.9 10.5619 31.4381 2.1 21 2.1C10.562 2.1 2.1 10.5619 2.1 21C2.1 31.438 10.562 39.9 21 39.9ZM21 42C32.5983 42 42 32.5983 42 21C42 9.4017 32.5983 0 21 0C9.4017 0 0 9.4017 0 21C0 32.5983 9.4017 42 21 42Z" fill="#52B0A0"/>
<g clip-path="url(#clip0_1373_6938)">
<path d="M18.8625 15.2543C22.36 18.4782 23.1849 22.9454 20.7032 25.2317C18.2216 27.5181 13.3729 26.7584 9.87373 23.5345C6.37455 20.3105 4.70155 15.2588 7.1832 12.9725C9.66485 10.6861 15.3613 12.0304 18.8625 15.2543Z" fill="#52B0A0"/>
<path d="M23.1389 15.2543C19.6414 18.4782 18.8149 22.9454 21.2966 25.2317C23.7782 27.5181 28.6269 26.7584 32.1261 23.5345C35.6252 20.3105 37.2982 15.2588 34.8166 12.9725C32.3349 10.6861 26.6384 12.0304 23.1389 15.2543Z" fill="#52B0A0"/>
<path d="M21.0002 23.2876H20.9999C20.1521 23.2876 19.4648 23.9749 19.4648 24.8226V33.7813C19.4648 34.629 20.1521 35.3163 20.9999 35.3163H21.0002C21.848 35.3163 22.5352 34.629 22.5352 33.7813V24.8226C22.5352 23.9749 21.848 23.2876 21.0002 23.2876Z" fill="#52B0A0"/>
</g>
<path d="M21 13C22.1046 13 23 12.1046 23 11C23 9.89543 22.1046 9 21 9C19.8954 9 19 9.89543 19 11C19 12.1046 19.8954 13 21 13Z" fill="#FFAA97"/>
<defs>
<clipPath id="clip0_1373_6938">
<rect width="30" height="24.3161" fill="white" transform="translate(6 11)"/>
</clipPath>
</defs>
</svg>
