<svg width="42" height="42" viewBox="0 0 42 42" fill="none" xmlns="http://www.w3.org/2000/svg">
<circle cx="21" cy="21" r="21" fill="white"/>
<path fill-rule="evenodd" clip-rule="evenodd" d="M21 39.9C31.4381 39.9 39.9 31.438 39.9 21C39.9 10.5619 31.4381 2.1 21 2.1C10.562 2.1 2.1 10.5619 2.1 21C2.1 31.438 10.562 39.9 21 39.9ZM21 42C32.5983 42 42 32.5983 42 21C42 9.4017 32.5983 0 21 0C9.4017 0 0 9.4017 0 21C0 32.5983 9.4017 42 21 42Z" fill="#52B0A0"/>
<g clip-path="url(#clip0_1373_6940)">
<path d="M18.5785 15.8214C22.2708 19.2247 23.1415 23.9406 20.5217 26.3542C17.9019 28.7679 12.7833 27.9658 9.08937 24.5625C5.3954 21.1591 3.62927 15.8261 6.24906 13.4125C8.86886 10.9989 14.8825 12.418 18.5785 15.8214Z" fill="#52B0A0"/>
<path d="M23.0932 15.8214C19.4009 19.2247 18.5285 23.9406 21.1483 26.3542C23.7681 28.7679 28.8866 27.9658 32.5806 24.5625C36.2746 21.1591 38.0407 15.8261 35.4209 13.4125C32.8011 10.9989 26.7875 12.418 23.0932 15.8214Z" fill="#52B0A0"/>
<path d="M14.4483 19.1031C14.743 24.1174 17.8414 27.7775 21.3685 27.2784C24.8957 26.7792 27.5158 22.3099 27.2211 17.2956C26.9264 12.2813 23.9172 7.53705 20.3904 8.03619C16.8636 8.53533 14.1532 14.0884 14.4483 19.1031Z" fill="#52B0A0"/>
<path d="M20.8352 24.3018H20.8348C19.9399 24.3018 19.2144 25.0273 19.2144 25.9223V35.3796C19.2144 36.2745 19.9399 37.0001 20.8348 37.0001H20.8352C21.7302 37.0001 22.4557 36.2745 22.4557 35.3796V25.9223C22.4557 25.0273 21.7302 24.3018 20.8352 24.3018Z" fill="#52B0A0"/>
</g>
<path d="M13.167 11C14.2716 11 15.167 10.1046 15.167 9C15.167 7.89543 14.2716 7 13.167 7C12.0624 7 11.167 7.89543 11.167 9C11.167 10.1046 12.0624 11 13.167 11Z" fill="#FFAA97"/>
<path d="M28.3584 11C29.463 11 30.3584 10.1046 30.3584 9C30.3584 7.89543 29.463 7 28.3584 7C27.2538 7 26.3584 7.89543 26.3584 9C26.3584 10.1046 27.2538 11 28.3584 11Z" fill="#FFAA97"/>
<defs>
<clipPath id="clip0_1373_6940">
<rect width="31.6701" height="29" fill="white" transform="translate(5 8)"/>
</clipPath>
</defs>
</svg>
